<?xml version="1.0" encoding="UTF-8"?>
<svg xmlns="http://www.w3.org/2000/svg" xmlns:xlink="http://www.w3.org/1999/xlink" width="70pt" height="70pt" viewBox="0 0 70 70" version="1.1">
<g id="surface1">
<path style=" stroke:none;fill-rule:nonzero;fill:rgb(41.176471%,80.392157%,100%);fill-opacity:1;" d="M 70 35 C 70 53.5 55.003906 68.496094 36.503906 68.496094 C 18.003906 68.496094 3.007812 53.5 3.007812 35 C 3.007812 16.5 18.003906 1.503906 36.503906 1.503906 C 55.003906 1.503906 70 16.5 70 35 Z M 70 35 "/>
<path style=" stroke:none;fill-rule:nonzero;fill:rgb(26.666667%,36.862745%,62.745098%);fill-opacity:1;" d="M 25.390625 49.019531 L 28.125 49.019531 L 28.125 51.753906 L 25.390625 51.753906 Z M 25.390625 49.019531 "/>
<path style=" stroke:none;fill-rule:nonzero;fill:rgb(18.039216%,29.803922%,53.72549%);fill-opacity:1;" d="M 25.390625 49.019531 L 28.125 49.019531 L 28.125 51.753906 L 25.390625 51.753906 Z M 25.390625 49.019531 "/>
<path style=" stroke:none;fill-rule:nonzero;fill:rgb(16.078431%,23.921569%,48.627451%);fill-opacity:1;" d="M 43.320312 54.519531 L 17.441406 54.519531 C 17.054688 54.519531 16.742188 54.832031 16.742188 55.214844 L 16.742188 58.710938 C 16.742188 59.09375 17.054688 59.410156 17.441406 59.410156 L 43.320312 59.410156 Z M 43.320312 54.519531 "/>
<path style=" stroke:none;fill-rule:nonzero;fill:rgb(10.196078%,16.862745%,38.823529%);fill-opacity:1;" d="M 19.457031 58.710938 L 19.457031 55.214844 C 19.457031 54.832031 19.769531 54.519531 20.152344 54.519531 L 17.441406 54.519531 C 17.054688 54.519531 16.742188 54.832031 16.742188 55.214844 L 16.742188 58.710938 C 16.742188 59.09375 17.054688 59.410156 17.441406 59.410156 L 20.152344 59.410156 C 19.769531 59.410156 19.457031 59.09375 19.457031 58.710938 Z M 19.457031 58.710938 "/>
<path style=" stroke:none;fill-rule:nonzero;fill:rgb(16.078431%,23.921569%,48.627451%);fill-opacity:1;" d="M 60.847656 8.0625 L 0.699219 8.0625 C 0.3125 8.0625 0 8.375 0 8.757812 L 0 48.457031 C 0 48.839844 0.3125 49.15625 0.699219 49.15625 L 43.320312 49.15625 L 43.320312 28.269531 C 43.320312 27.742188 43.75 27.3125 44.277344 27.3125 L 61.542969 27.3125 L 61.542969 8.757812 C 61.542969 8.375 61.230469 8.0625 60.847656 8.0625 Z M 60.847656 8.0625 "/>
<path style=" stroke:none;fill-rule:nonzero;fill:rgb(100%,100%,100%);fill-opacity:1;" d="M 3.0625 42.179688 C 3.0625 42.410156 3.25 42.597656 3.480469 42.597656 L 43.320312 42.597656 L 43.320312 28.269531 C 43.320312 27.742188 43.75 27.3125 44.277344 27.3125 L 58.484375 27.3125 L 58.484375 14.902344 L 3.0625 14.902344 Z M 3.0625 42.179688 "/>
<path style=" stroke:none;fill-rule:nonzero;fill:rgb(85.098039%,91.764706%,98.823529%);fill-opacity:1;" d="M 5.773438 42.179688 L 5.773438 14.902344 L 3.0625 14.902344 L 3.0625 42.179688 C 3.0625 42.410156 3.25 42.597656 3.480469 42.597656 L 6.195312 42.597656 C 5.964844 42.597656 5.773438 42.410156 5.773438 42.179688 Z M 5.773438 42.179688 "/>
<path style=" stroke:none;fill-rule:nonzero;fill:rgb(26.666667%,36.862745%,62.745098%);fill-opacity:1;" d="M 32.65625 45.863281 C 32.65625 46.902344 31.8125 47.746094 30.773438 47.746094 C 29.734375 47.746094 28.890625 46.902344 28.890625 45.863281 C 28.890625 44.824219 29.734375 43.980469 30.773438 43.980469 C 31.8125 43.980469 32.65625 44.824219 32.65625 45.863281 Z M 32.65625 45.863281 "/>
<path style=" stroke:none;fill-rule:nonzero;fill:rgb(76.470588%,86.666667%,95.686275%);fill-opacity:1;" d="M 43.320312 30.507812 L 36.015625 30.507812 C 35.789062 30.507812 35.605469 30.691406 35.605469 30.917969 L 35.605469 39.070312 C 35.605469 39.296875 35.789062 39.480469 36.015625 39.480469 L 43.320312 39.480469 Z M 43.320312 30.507812 "/>
<path style=" stroke:none;fill-rule:nonzero;fill:rgb(68.235294%,75.686275%,92.941176%);fill-opacity:1;" d="M 38.320312 39.070312 L 38.320312 30.917969 C 38.320312 30.691406 38.503906 30.507812 38.730469 30.507812 L 36.015625 30.507812 C 35.789062 30.507812 35.605469 30.691406 35.605469 30.917969 L 35.605469 39.070312 C 35.605469 39.296875 35.789062 39.480469 36.015625 39.480469 L 38.730469 39.480469 C 38.503906 39.480469 38.320312 39.296875 38.320312 39.070312 Z M 38.320312 39.070312 "/>
<path style=" stroke:none;fill-rule:nonzero;fill:rgb(76.470588%,86.666667%,95.686275%);fill-opacity:1;" d="M 44.277344 27.3125 L 50.652344 27.3125 L 50.652344 18.375 C 50.652344 17.996094 50.34375 17.691406 49.96875 17.691406 L 11.578125 17.691406 C 11.203125 17.691406 10.894531 17.996094 10.894531 18.375 L 10.894531 27.46875 C 10.894531 27.84375 11.203125 28.152344 11.578125 28.152344 L 43.328125 28.152344 C 43.386719 27.679688 43.789062 27.3125 44.277344 27.3125 Z M 44.277344 27.3125 "/>
<path style=" stroke:none;fill-rule:nonzero;fill:rgb(68.235294%,75.686275%,92.941176%);fill-opacity:1;" d="M 13.605469 27.46875 L 13.605469 18.371094 C 13.605469 17.996094 13.914062 17.6875 14.289062 17.6875 L 11.578125 17.6875 C 11.203125 17.6875 10.894531 17.996094 10.894531 18.371094 L 10.894531 27.46875 C 10.894531 27.84375 11.203125 28.152344 11.578125 28.152344 L 14.289062 28.152344 C 13.914062 28.152344 13.605469 27.84375 13.605469 27.46875 Z M 13.605469 27.46875 "/>
<path style=" stroke:none;fill-rule:nonzero;fill:rgb(100%,68.627451%,6.27451%);fill-opacity:1;" d="M 58.0625 11.617188 L 3.480469 11.617188 C 3.25 11.617188 3.0625 11.808594 3.0625 12.039062 L 3.0625 15.039062 L 58.484375 15.039062 L 58.484375 12.039062 C 58.484375 11.808594 58.292969 11.617188 58.0625 11.617188 Z M 58.0625 11.617188 "/>
<path style=" stroke:none;fill-rule:nonzero;fill:rgb(100%,58.431373%,9.411765%);fill-opacity:1;" d="M 6.195312 11.617188 L 3.480469 11.617188 C 3.25 11.617188 3.0625 11.808594 3.0625 12.039062 L 3.0625 15.039062 L 5.773438 15.039062 L 5.773438 12.039062 C 5.773438 11.808594 5.964844 11.617188 6.195312 11.617188 Z M 6.195312 11.617188 "/>
<path style=" stroke:none;fill-rule:nonzero;fill:rgb(36.470588%,75.686275%,84.705882%);fill-opacity:1;" d="M 23.449219 32.671875 L 11.941406 32.671875 C 11.375 32.671875 10.914062 32.214844 10.914062 31.648438 C 10.914062 31.082031 11.375 30.621094 11.941406 30.621094 L 23.449219 30.621094 C 24.015625 30.621094 24.472656 31.082031 24.472656 31.648438 C 24.472656 32.214844 24.015625 32.671875 23.449219 32.671875 Z M 23.449219 32.671875 "/>
<path style=" stroke:none;fill-rule:nonzero;fill:rgb(36.470588%,75.686275%,84.705882%);fill-opacity:1;" d="M 23.449219 36.019531 L 11.941406 36.019531 C 11.375 36.019531 10.914062 35.5625 10.914062 34.996094 C 10.914062 34.429688 11.375 33.96875 11.941406 33.96875 L 23.449219 33.96875 C 24.015625 33.96875 24.472656 34.429688 24.472656 34.996094 C 24.472656 35.5625 24.015625 36.019531 23.449219 36.019531 Z M 23.449219 36.019531 "/>
<path style=" stroke:none;fill-rule:nonzero;fill:rgb(36.470588%,75.686275%,84.705882%);fill-opacity:1;" d="M 23.449219 39.367188 L 11.941406 39.367188 C 11.375 39.367188 10.914062 38.910156 10.914062 38.34375 C 10.914062 37.777344 11.375 37.316406 11.941406 37.316406 L 23.449219 37.316406 C 24.015625 37.316406 24.472656 37.777344 24.472656 38.34375 C 24.472656 38.910156 24.015625 39.367188 23.449219 39.367188 Z M 23.449219 39.367188 "/>
<path style=" stroke:none;fill-rule:nonzero;fill:rgb(36.470588%,75.686275%,84.705882%);fill-opacity:1;" d="M 32.480469 32.671875 L 26.554688 32.671875 C 25.988281 32.671875 25.53125 32.214844 25.53125 31.648438 C 25.53125 31.082031 25.988281 30.621094 26.554688 30.621094 L 32.480469 30.621094 C 33.046875 30.621094 33.503906 31.082031 33.503906 31.648438 C 33.503906 32.214844 33.046875 32.671875 32.480469 32.671875 Z M 32.480469 32.671875 "/>
<path style=" stroke:none;fill-rule:nonzero;fill:rgb(36.470588%,75.686275%,84.705882%);fill-opacity:1;" d="M 32.480469 36.019531 L 26.554688 36.019531 C 25.988281 36.019531 25.53125 35.5625 25.53125 34.996094 C 25.53125 34.429688 25.988281 33.96875 26.554688 33.96875 L 32.480469 33.96875 C 33.046875 33.96875 33.503906 34.429688 33.503906 34.996094 C 33.503906 35.5625 33.046875 36.019531 32.480469 36.019531 Z M 32.480469 36.019531 "/>
<path style=" stroke:none;fill-rule:nonzero;fill:rgb(36.470588%,75.686275%,84.705882%);fill-opacity:1;" d="M 32.480469 39.367188 L 26.554688 39.367188 C 25.988281 39.367188 25.53125 38.910156 25.53125 38.34375 C 25.53125 37.777344 25.988281 37.316406 26.554688 37.316406 L 32.480469 37.316406 C 33.046875 37.316406 33.503906 37.777344 33.503906 38.34375 C 33.503906 38.910156 33.046875 39.367188 32.480469 39.367188 Z M 32.480469 39.367188 "/>
<path style=" stroke:none;fill-rule:nonzero;fill:rgb(26.666667%,36.862745%,62.745098%);fill-opacity:1;" d="M 68.90625 27.175781 C 69.507812 27.175781 70 27.667969 70 28.269531 L 70 61.324219 C 70 61.925781 69.507812 62.417969 68.90625 62.417969 L 44.277344 62.417969 C 43.675781 62.417969 43.183594 61.925781 43.183594 61.324219 L 43.183594 28.269531 C 43.183594 27.667969 43.675781 27.175781 44.277344 27.175781 Z M 68.90625 27.175781 "/>
<path style=" stroke:none;fill-rule:nonzero;fill:rgb(100%,100%,100%);fill-opacity:1;" d="M 46.152344 58.121094 C 45.777344 58.121094 45.46875 57.816406 45.46875 57.4375 L 45.46875 29.964844 C 45.46875 29.589844 45.777344 29.28125 46.152344 29.28125 L 67.03125 29.28125 C 67.40625 29.28125 67.714844 29.589844 67.714844 29.964844 L 67.714844 57.4375 C 67.714844 57.816406 67.40625 58.121094 67.03125 58.121094 Z M 46.152344 58.121094 "/>
<path style=" stroke:none;fill-rule:nonzero;fill:rgb(85.098039%,91.764706%,98.823529%);fill-opacity:1;" d="M 48.179688 57.4375 L 48.179688 29.964844 C 48.179688 29.589844 48.488281 29.28125 48.863281 29.28125 L 46.152344 29.28125 C 45.777344 29.28125 45.46875 29.589844 45.46875 29.964844 L 45.46875 57.4375 C 45.46875 57.816406 45.777344 58.121094 46.152344 58.121094 L 48.863281 58.121094 C 48.488281 58.121094 48.179688 57.816406 48.179688 57.4375 Z M 48.179688 57.4375 "/>
<path style=" stroke:none;fill-rule:nonzero;fill:rgb(26.666667%,36.862745%,62.745098%);fill-opacity:1;" d="M 55.3125 60.855469 C 54.9375 60.855469 54.628906 60.550781 54.628906 60.171875 L 54.628906 59.90625 C 54.628906 59.53125 54.9375 59.222656 55.3125 59.222656 L 57.871094 59.222656 C 58.246094 59.222656 58.554688 59.53125 58.554688 59.90625 L 58.554688 60.171875 C 58.554688 60.550781 58.246094 60.855469 57.871094 60.855469 Z M 55.3125 60.855469 "/>
<path style=" stroke:none;fill-rule:nonzero;fill:rgb(100%,68.627451%,6.27451%);fill-opacity:1;" d="M 67.714844 31.921875 L 67.714844 29.964844 C 67.714844 29.589844 67.40625 29.28125 67.03125 29.28125 L 46.152344 29.28125 C 45.777344 29.28125 45.46875 29.589844 45.46875 29.964844 L 45.46875 31.921875 Z M 67.714844 31.921875 "/>
<path style=" stroke:none;fill-rule:nonzero;fill:rgb(100%,58.431373%,9.411765%);fill-opacity:1;" d="M 48.863281 29.28125 L 46.152344 29.28125 C 45.777344 29.28125 45.46875 29.589844 45.46875 29.964844 L 45.46875 31.921875 L 48.179688 31.921875 L 48.179688 29.964844 C 48.179688 29.589844 48.488281 29.28125 48.863281 29.28125 Z M 48.863281 29.28125 "/>
<path style=" stroke:none;fill-rule:nonzero;fill:rgb(36.470588%,75.686275%,84.705882%);fill-opacity:1;" d="M 61.25 44.425781 L 51.933594 44.425781 C 51.367188 44.425781 50.90625 43.964844 50.90625 43.398438 C 50.90625 42.832031 51.367188 42.375 51.933594 42.375 L 61.25 42.375 C 61.816406 42.375 62.277344 42.832031 62.277344 43.398438 C 62.277344 43.964844 61.816406 44.425781 61.25 44.425781 Z M 61.25 44.425781 "/>
<path style=" stroke:none;fill-rule:nonzero;fill:rgb(36.470588%,75.686275%,84.705882%);fill-opacity:1;" d="M 61.25 47.585938 L 51.933594 47.585938 C 51.367188 47.585938 50.90625 47.128906 50.90625 46.5625 C 50.90625 45.996094 51.367188 45.535156 51.933594 45.535156 L 61.25 45.535156 C 61.816406 45.535156 62.277344 45.996094 62.277344 46.5625 C 62.277344 47.128906 61.816406 47.585938 61.25 47.585938 Z M 61.25 47.585938 "/>
<path style=" stroke:none;fill-rule:nonzero;fill:rgb(36.470588%,75.686275%,84.705882%);fill-opacity:1;" d="M 61.25 50.746094 L 51.933594 50.746094 C 51.367188 50.746094 50.90625 50.289062 50.90625 49.722656 C 50.90625 49.15625 51.367188 48.695312 51.933594 48.695312 L 61.25 48.695312 C 61.816406 48.695312 62.277344 49.15625 62.277344 49.722656 C 62.277344 50.289062 61.816406 50.746094 61.25 50.746094 Z M 61.25 50.746094 "/>
<path style=" stroke:none;fill-rule:nonzero;fill:rgb(76.470588%,86.666667%,95.686275%);fill-opacity:1;" d="M 65.589844 39.957031 C 65.589844 40.332031 65.285156 40.640625 64.90625 40.640625 L 48.277344 40.640625 C 47.898438 40.640625 47.59375 40.332031 47.59375 39.957031 L 47.59375 34.316406 C 47.59375 33.941406 47.898438 33.632812 48.277344 33.632812 L 64.90625 33.632812 C 65.285156 33.632812 65.589844 33.941406 65.589844 34.316406 Z M 65.589844 39.957031 "/>
<path style=" stroke:none;fill-rule:nonzero;fill:rgb(68.235294%,75.686275%,92.941176%);fill-opacity:1;" d="M 50.304688 39.957031 L 50.304688 34.316406 C 50.304688 33.941406 50.613281 33.632812 50.988281 33.632812 L 48.277344 33.632812 C 47.898438 33.632812 47.59375 33.941406 47.59375 34.316406 L 47.59375 39.957031 C 47.59375 40.332031 47.898438 40.640625 48.277344 40.640625 L 50.988281 40.640625 C 50.613281 40.640625 50.304688 40.332031 50.304688 39.957031 Z M 50.304688 39.957031 "/>
<path style=" stroke:none;fill-rule:nonzero;fill:rgb(76.470588%,86.666667%,95.686275%);fill-opacity:1;" d="M 63.128906 55.976562 C 63.128906 56.351562 62.824219 56.660156 62.445312 56.660156 L 50.734375 56.660156 C 50.359375 56.660156 50.054688 56.351562 50.054688 55.976562 L 50.054688 53.664062 C 50.054688 53.285156 50.359375 52.980469 50.734375 52.980469 L 62.445312 52.980469 C 62.824219 52.980469 63.128906 53.285156 63.128906 53.664062 Z M 63.128906 55.976562 "/>
<path style=" stroke:none;fill-rule:nonzero;fill:rgb(68.235294%,75.686275%,92.941176%);fill-opacity:1;" d="M 52.765625 55.976562 L 52.765625 53.664062 C 52.765625 53.285156 53.074219 52.980469 53.449219 52.980469 L 50.734375 52.980469 C 50.359375 52.980469 50.054688 53.285156 50.054688 53.664062 L 50.054688 55.976562 C 50.054688 56.351562 50.359375 56.660156 50.734375 56.660156 L 53.449219 56.660156 C 53.074219 56.660156 52.765625 56.351562 52.765625 55.976562 Z M 52.765625 55.976562 "/>
</g>
</svg>
